<svg width="123" height="87" viewBox="0 0 123 87" fill="none" xmlns="http://www.w3.org/2000/svg">
  <!-- Background -->
  <rect x="10" y="10" width="103" height="67" rx="8" fill="#F4F4F9"/>
  
  <!-- Cloud Symbol -->
  <path d="M30 35C30 28.3726 35.3726 23 42 23C47.5 23 52.2447 26.7764 53.6325 31.8884C54.4627 31.3098 55.4353 31 56.5 31C59.5376 31 62 33.4624 62 36.5C62 36.8523 61.9621 37.1951 61.8902 37.5254C64.8359 38.0298 67 40.6012 67 43.7C67 47.1421 64.0899 49.9 60.5 49.9H35.5C31.9101 49.9 29 47.1421 29 43.7C29 40.6012 31.1641 38.0298 34.1098 37.5254C34.0379 37.1951 34 36.8523 34 36.5C34 33.4624 36.4624 31 39.5 31C40.5647 31 41.5373 31.3098 42.3675 31.8884C43.7553 26.7764 48.5 23 54 23" 
        stroke="#A76DFC" stroke-width="3" stroke-linecap="round"/>
  
  <!-- Code Window -->
  <rect x="20" y="20" width="83" height="47" rx="4" fill="white" stroke="#5C1CB2" stroke-width="2"/>
  <rect x="20" y="20" width="83" height="8" rx="4" fill="#5C1CB2"/>
  <circle cx="25" cy="24" r="2" fill="#FF00C1"/>
  <circle cx="31" cy="24" r="2" fill="#F4AC24"/>
  <circle cx="37" cy="24" r="2" fill="#A76DFC"/>
  
  <!-- Code Lines -->
  <path d="M30 35H60M30 41H50M30 47H55" stroke="#5C1CB2" stroke-width="2" stroke-linecap="round"/>
  
  <!-- Tech Stack Icons -->
  <circle cx="85" cy="35" r="4" fill="#FF00C1"/>
  <circle cx="85" cy="45" r="4" fill="#F4AC24"/>
  <circle cx="85" cy="55" r="4" fill="#A76DFC"/>
  
  <!-- Connection Lines -->
  <path d="M73 35H81M73 45H81M73 55H81" stroke="#5C1CB2" stroke-width="2" stroke-linecap="round"/>
</svg>
